<svg xmlns="http://www.w3.org/2000/svg" xmlns:xlink="http://www.w3.org/1999/xlink" contentStyleType="text/css" height="396px" preserveAspectRatio="none" style="width:804px;height:396px;background:#FFFFFF;" version="1.1" viewBox="0 0 804 396" width="804px" zoomAndPan="magnify"><title>juego - patron decorator</title><defs/><g><text fill="#000000" font-family="sans-serif" font-size="14" font-weight="bold" lengthAdjust="spacing" textLength="193.9834" x="298.1138" y="22.9951">juego - patron decorator</text><!--class Personaje--><g id="elem_Personaje"><rect codeLine="3" fill="#F1F1F1" height="64.2969" id="Personaje" rx="2.5" ry="2.5" style="stroke:#181818;stroke-width:0.5;" width="191.2109" x="363" y="44.2969"/><ellipse cx="420.0425" cy="60.2969" fill="#B4A7E5" rx="11" ry="11" style="stroke:#181818;stroke-width:1;"/><path d="M415.9644,56.0625 L415.9644,53.9063 L423.355,53.9063 L423.355,56.0625 L420.8862,56.0625 L420.8862,64.1406 L423.355,64.1406 L423.355,66.2969 L415.9644,66.2969 L415.9644,64.1406 L418.4331,64.1406 L418.4331,56.0625 L415.9644,56.0625 Z " fill="#000000"/><text fill="#000000" font-family="sans-serif" font-size="14" font-style="italic" lengthAdjust="spacing" textLength="68.626" x="440.5425" y="65.1436">Personaje</text><line style="stroke:#181818;stroke-width:0.5;" x1="364" x2="553.2109" y1="76.2969" y2="76.2969"/><line style="stroke:#181818;stroke-width:0.5;" x1="364" x2="553.2109" y1="84.2969" y2="84.2969"/><ellipse cx="374" cy="97.9453" fill="#84BE84" rx="3" ry="3" style="stroke:#038048;stroke-width:1;"/><text fill="#000000" font-family="sans-serif" font-size="14" lengthAdjust="spacing" textLength="165.2109" x="383" y="101.292">getDescripcion(): string</text></g><!--class Guerrero--><g id="elem_Guerrero"><rect codeLine="7" fill="#F1F1F1" height="64.2969" id="Guerrero" rx="2.5" ry="2.5" style="stroke:#181818;stroke-width:0.5;" width="191.2109" x="7" y="184.7969"/><ellipse cx="66.9648" cy="200.7969" fill="#ADD1B2" rx="11" ry="11" style="stroke:#181818;stroke-width:1;"/><path d="M69.9336,206.4375 Q69.3555,206.7344 68.7148,206.875 Q68.0742,207.0313 67.3711,207.0313 Q64.8711,207.0313 63.543,205.3906 Q62.2305,203.7344 62.2305,200.6094 Q62.2305,197.4844 63.543,195.8281 Q64.8711,194.1719 67.3711,194.1719 Q68.0742,194.1719 68.7148,194.3281 Q69.3711,194.4844 69.9336,194.7813 L69.9336,197.5 Q69.3086,196.9219 68.7148,196.6563 Q68.1211,196.375 67.4961,196.375 Q66.1523,196.375 65.4648,197.4531 Q64.7773,198.5156 64.7773,200.6094 Q64.7773,202.7031 65.4648,203.7813 Q66.1523,204.8438 67.4961,204.8438 Q68.1211,204.8438 68.7148,204.5781 Q69.3086,204.2969 69.9336,203.7188 L69.9336,206.4375 Z " fill="#000000"/><text fill="#000000" font-family="sans-serif" font-size="14" lengthAdjust="spacing" textLength="62.7813" x="87.4648" y="205.6436">Guerrero</text><line style="stroke:#181818;stroke-width:0.5;" x1="8" x2="197.2109" y1="216.7969" y2="216.7969"/><line style="stroke:#181818;stroke-width:0.5;" x1="8" x2="197.2109" y1="224.7969" y2="224.7969"/><ellipse cx="18" cy="238.4453" fill="#84BE84" rx="3" ry="3" style="stroke:#038048;stroke-width:1;"/><text fill="#000000" font-family="sans-serif" font-size="14" lengthAdjust="spacing" textLength="165.2109" x="27" y="241.792">getDescripcion(): string</text></g><!--class Mago--><g id="elem_Mago"><rect codeLine="11" fill="#F1F1F1" height="64.2969" id="Mago" rx="2.5" ry="2.5" style="stroke:#181818;stroke-width:0.5;" width="191.2109" x="233" y="184.7969"/><ellipse cx="305.3003" cy="200.7969" fill="#ADD1B2" rx="11" ry="11" style="stroke:#181818;stroke-width:1;"/><path d="M308.269,206.4375 Q307.6909,206.7344 307.0503,206.875 Q306.4097,207.0313 305.7065,207.0313 Q303.2065,207.0313 301.8784,205.3906 Q300.5659,203.7344 300.5659,200.6094 Q300.5659,197.4844 301.8784,195.8281 Q303.2065,194.1719 305.7065,194.1719 Q306.4097,194.1719 307.0503,194.3281 Q307.7065,194.4844 308.269,194.7813 L308.269,197.5 Q307.644,196.9219 307.0503,196.6563 Q306.4565,196.375 305.8315,196.375 Q304.4878,196.375 303.8003,197.4531 Q303.1128,198.5156 303.1128,200.6094 Q303.1128,202.7031 303.8003,203.7813 Q304.4878,204.8438 305.8315,204.8438 Q306.4565,204.8438 307.0503,204.5781 Q307.644,204.2969 308.269,203.7188 L308.269,206.4375 Z " fill="#000000"/><text fill="#000000" font-family="sans-serif" font-size="14" lengthAdjust="spacing" textLength="38.1104" x="325.8003" y="205.6436">Mago</text><line style="stroke:#181818;stroke-width:0.5;" x1="234" x2="423.2109" y1="216.7969" y2="216.7969"/><line style="stroke:#181818;stroke-width:0.5;" x1="234" x2="423.2109" y1="224.7969" y2="224.7969"/><ellipse cx="244" cy="238.4453" fill="#84BE84" rx="3" ry="3" style="stroke:#038048;stroke-width:1;"/><text fill="#000000" font-family="sans-serif" font-size="14" lengthAdjust="spacing" textLength="165.2109" x="253" y="241.792">getDescripcion(): string</text></g><!--class ArmaDecorator--><g id="elem_ArmaDecorator"><rect codeLine="15" fill="#F1F1F1" height="96.8906" id="ArmaDecorator" rx="2.5" ry="2.5" style="stroke:#181818;stroke-width:0.5;" width="258.8047" x="459" y="168.2969"/><ellipse cx="530.4766" cy="184.2969" fill="#A9DCDF" rx="11" ry="11" style="stroke:#181818;stroke-width:1;"/><path d="M530.5859,179.6406 L529.4297,184.7188 L531.7578,184.7188 L530.5859,179.6406 Z M529.1016,177.4063 L532.0859,177.4063 L535.4453,189.7969 L532.9922,189.7969 L532.2266,186.7344 L528.9453,186.7344 L528.1953,189.7969 L525.7578,189.7969 L529.1016,177.4063 Z " fill="#000000"/><text fill="#000000" font-family="sans-serif" font-size="14" font-style="italic" lengthAdjust="spacing" textLength="107.3516" x="550.9766" y="189.1436">ArmaDecorator</text><line style="stroke:#181818;stroke-width:0.5;" x1="460" x2="716.8047" y1="200.2969" y2="200.2969"/><polygon fill="none" points="470,208.9453,474,212.9453,470,216.9453,466,212.9453" style="stroke:#B38D22;stroke-width:1;"/><text fill="#000000" font-family="sans-serif" font-size="14" lengthAdjust="spacing" textLength="155.7705" x="479" y="217.292">$personaje: Personaje</text><line style="stroke:#181818;stroke-width:0.5;" x1="460" x2="716.8047" y1="224.5938" y2="224.5938"/><ellipse cx="470" cy="238.2422" fill="#84BE84" rx="3" ry="3" style="stroke:#038048;stroke-width:1;"/><text fill="#000000" font-family="sans-serif" font-size="14" lengthAdjust="spacing" textLength="232.8047" x="479" y="241.5889">__construct(Personaje personaje)</text><ellipse cx="470" cy="254.5391" fill="#84BE84" rx="3" ry="3" style="stroke:#038048;stroke-width:1;"/><text fill="#000000" font-family="sans-serif" font-size="14" lengthAdjust="spacing" textLength="165.2109" x="479" y="257.8857">getDescripcion(): string</text></g><!--class Espada--><g id="elem_Espada"><rect codeLine="21" fill="#F1F1F1" height="64.2969" id="Espada" rx="2.5" ry="2.5" style="stroke:#181818;stroke-width:0.5;" width="191.2109" x="380" y="325.2969"/><ellipse cx="445.8198" cy="341.2969" fill="#ADD1B2" rx="11" ry="11" style="stroke:#181818;stroke-width:1;"/><path d="M448.7886,346.9375 Q448.2104,347.2344 447.5698,347.375 Q446.9292,347.5313 446.2261,347.5313 Q443.7261,347.5313 442.3979,345.8906 Q441.0854,344.2344 441.0854,341.1094 Q441.0854,337.9844 442.3979,336.3281 Q443.7261,334.6719 446.2261,334.6719 Q446.9292,334.6719 447.5698,334.8281 Q448.2261,334.9844 448.7886,335.2813 L448.7886,338 Q448.1636,337.4219 447.5698,337.1563 Q446.9761,336.875 446.3511,336.875 Q445.0073,336.875 444.3198,337.9531 Q443.6323,339.0156 443.6323,341.1094 Q443.6323,343.2031 444.3198,344.2813 Q445.0073,345.3438 446.3511,345.3438 Q446.9761,345.3438 447.5698,345.0781 Q448.1636,344.7969 448.7886,344.2188 L448.7886,346.9375 Z " fill="#000000"/><text fill="#000000" font-family="sans-serif" font-size="14" lengthAdjust="spacing" textLength="51.0713" x="466.3198" y="346.1436">Espada</text><line style="stroke:#181818;stroke-width:0.5;" x1="381" x2="570.2109" y1="357.2969" y2="357.2969"/><line style="stroke:#181818;stroke-width:0.5;" x1="381" x2="570.2109" y1="365.2969" y2="365.2969"/><ellipse cx="391" cy="378.9453" fill="#84BE84" rx="3" ry="3" style="stroke:#038048;stroke-width:1;"/><text fill="#000000" font-family="sans-serif" font-size="14" lengthAdjust="spacing" textLength="165.2109" x="400" y="382.292">getDescripcion(): string</text></g><!--class Vara--><g id="elem_Vara"><rect codeLine="25" fill="#F1F1F1" height="64.2969" id="Vara" rx="2.5" ry="2.5" style="stroke:#181818;stroke-width:0.5;" width="191.2109" x="606" y="325.2969"/><ellipse cx="681.1099" cy="341.2969" fill="#ADD1B2" rx="11" ry="11" style="stroke:#181818;stroke-width:1;"/><path d="M684.0786,346.9375 Q683.5005,347.2344 682.8599,347.375 Q682.2192,347.5313 681.5161,347.5313 Q679.0161,347.5313 677.688,345.8906 Q676.3755,344.2344 676.3755,341.1094 Q676.3755,337.9844 677.688,336.3281 Q679.0161,334.6719 681.5161,334.6719 Q682.2192,334.6719 682.8599,334.8281 Q683.5161,334.9844 684.0786,335.2813 L684.0786,338 Q683.4536,337.4219 682.8599,337.1563 Q682.2661,336.875 681.6411,336.875 Q680.2974,336.875 679.6099,337.9531 Q678.9224,339.0156 678.9224,341.1094 Q678.9224,343.2031 679.6099,344.2813 Q680.2974,345.3438 681.6411,345.3438 Q682.2661,345.3438 682.8599,345.0781 Q683.4536,344.7969 684.0786,344.2188 L684.0786,346.9375 Z " fill="#000000"/><text fill="#000000" font-family="sans-serif" font-size="14" lengthAdjust="spacing" textLength="32.4912" x="701.6099" y="346.1436">Vara</text><line style="stroke:#181818;stroke-width:0.5;" x1="607" x2="796.2109" y1="357.2969" y2="357.2969"/><line style="stroke:#181818;stroke-width:0.5;" x1="607" x2="796.2109" y1="365.2969" y2="365.2969"/><ellipse cx="617" cy="378.9453" fill="#84BE84" rx="3" ry="3" style="stroke:#038048;stroke-width:1;"/><text fill="#000000" font-family="sans-serif" font-size="14" lengthAdjust="spacing" textLength="165.2109" x="626" y="382.292">getDescripcion(): string</text></g><!--reverse link Personaje to Guerrero--><g id="link_Personaje_Guerrero"><path codeLine="29" d="M356.1099,114.5999 C309.3999,131.8099 267.52,147.6369 215.5,168.2969 C202.45,173.4869 188.61,179.1469 175.27,184.7069 " fill="none" id="Personaje-backto-Guerrero" style="stroke:#181818;stroke-width:1;stroke-dasharray:7.0,7.0;"/><polygon fill="none" points="373,108.3769,354.0356,108.9699,358.1843,120.2299,373,108.3769" style="stroke:#181818;stroke-width:1;"/></g><!--reverse link Personaje to Mago--><g id="link_Personaje_Mago"><path codeLine="30" d="M417.0112,121.5011 C395.7512,144.1511 379.37,161.6069 358.03,184.3369 " fill="none" id="Personaje-backto-Mago" style="stroke:#181818;stroke-width:1;stroke-dasharray:7.0,7.0;"/><polygon fill="none" points="429.33,108.3769,412.6364,117.3949,421.3859,125.6074,429.33,108.3769" style="stroke:#181818;stroke-width:1;"/></g><!--reverse link Personaje to ArmaDecorator--><g id="link_Personaje_ArmaDecorator"><path codeLine="31" d="M488.3014,122.248 C502.8814,139.878 512.01,148.4269 531.67,168.2269 " fill="none" id="Personaje-backto-ArmaDecorator" style="stroke:#181818;stroke-width:1;stroke-dasharray:7.0,7.0;"/><polygon fill="none" points="476.83,108.3769,483.6777,126.0718,492.9251,118.4242,476.83,108.3769" style="stroke:#181818;stroke-width:1;"/></g><!--reverse link ArmaDecorator to Personaje--><g id="link_ArmaDecorator_Personaje"><path codeLine="34" d="M548.8084,159.2219 C531.3684,139.4219 517.78,126.0069 499.16,108.3769 " fill="none" id="ArmaDecorator-backto-Personaje" style="stroke:#181818;stroke-width:1;"/><polygon fill="none" points="556.74,168.2269,555.7758,161.0805,548.8084,159.2219,549.7725,166.3683,556.74,168.2269" style="stroke:#181818;stroke-width:1;"/></g><!--reverse link ArmaDecorator to Espada--><g id="link_ArmaDecorator_Espada"><path codeLine="32" d="M538.2306,279.4035 C522.1406,299.1235 515.32,307.4969 500.98,325.0669 " fill="none" id="ArmaDecorator-backto-Espada" style="stroke:#181818;stroke-width:1;"/><polygon fill="none" points="549.61,265.4569,533.5817,275.6104,542.8795,283.1967,549.61,265.4569" style="stroke:#181818;stroke-width:1;"/></g><!--reverse link ArmaDecorator to Vara--><g id="link_ArmaDecorator_Vara"><path codeLine="33" d="M638.7694,279.4035 C654.8594,299.1235 661.68,307.4969 676.02,325.0669 " fill="none" id="ArmaDecorator-backto-Vara" style="stroke:#181818;stroke-width:1;"/><polygon fill="none" points="627.39,265.4569,634.1205,283.1967,643.4183,275.6104,627.39,265.4569" style="stroke:#181818;stroke-width:1;"/></g><!--SRC=[bP3D2i8m48JlUOe5FLYaVG3n8YYU14zUPKtN4j5is6nFwhlROd-mU6Xp2fETpJUZJky4jv8AXXG2gh27d2mBAeinpYl95It1aIIonnl1qq1rbb2GRYbQSS4wzeja1L75-SAyZR5tZ17s9OcGy0JB0OjnutYfxcWLlhwDF73RSZSBPZ0FBVMg3z0iFvyj-sf7QNNHX-iCoMZaNGoOuuIC9vHnuptM-fLbNPr3lUvigFtqONxRMR_IjA7-zrBZ3NIkvEw33m00]--></g></svg>