<svg xmlns="http://www.w3.org/2000/svg" xmlns:xlink="http://www.w3.org/1999/xlink" contentStyleType="text/css" height="414px" preserveAspectRatio="none" style="width:981px;height:414px;background:#FFFFFF;" version="1.1" viewBox="0 0 981 414" width="981px" zoomAndPan="magnify"><title>sistema de Mensajes con Patr&#243;n ej4_patronStrategy</title><defs/><g><text fill="#000000" font-family="sans-serif" font-size="14" font-weight="bold" lengthAdjust="spacing" textLength="412.2959" x="277.4443" y="22.9951">sistema de Mensajes con Patr&#243;n ej4_patronStrategy</text><!--class Salida--><g id="elem_Salida"><rect codeLine="3" fill="#F1F1F1" height="64.2969" id="Salida" rx="2.5" ry="2.5" style="stroke:#181818;stroke-width:0.5;" width="299.1846" x="341" y="218.2969"/><ellipse cx="464.9868" cy="234.2969" fill="#B4A7E5" rx="11" ry="11" style="stroke:#181818;stroke-width:1;"/><path d="M460.9087,230.0625 L460.9087,227.9063 L468.2993,227.9063 L468.2993,230.0625 L465.8306,230.0625 L465.8306,238.1406 L468.2993,238.1406 L468.2993,240.2969 L460.9087,240.2969 L460.9087,238.1406 L463.3774,238.1406 L463.3774,230.0625 L460.9087,230.0625 Z " fill="#000000"/><text fill="#000000" font-family="sans-serif" font-size="14" font-style="italic" lengthAdjust="spacing" textLength="42.7109" x="485.4868" y="239.1436">Salida</text><line style="stroke:#181818;stroke-width:0.5;" x1="342" x2="639.1846" y1="250.2969" y2="250.2969"/><line style="stroke:#181818;stroke-width:0.5;" x1="342" x2="639.1846" y1="258.2969" y2="258.2969"/><ellipse cx="352" cy="271.9453" fill="#84BE84" rx="3" ry="3" style="stroke:#038048;stroke-width:1;"/><text fill="#000000" font-family="sans-serif" font-size="14" lengthAdjust="spacing" textLength="273.1846" x="361" y="275.292">mostrarMensaje(mensaje: String): void</text></g><!--class Consola--><g id="elem_Consola"><rect codeLine="7" fill="#F1F1F1" height="64.2969" id="Consola" rx="2.5" ry="2.5" style="stroke:#181818;stroke-width:0.5;" width="299.1846" x="7" y="343.2969"/><ellipse cx="124.5713" cy="359.2969" fill="#ADD1B2" rx="11" ry="11" style="stroke:#181818;stroke-width:1;"/><path d="M127.54,364.9375 Q126.9619,365.2344 126.3213,365.375 Q125.6807,365.5313 124.9775,365.5313 Q122.4775,365.5313 121.1494,363.8906 Q119.8369,362.2344 119.8369,359.1094 Q119.8369,355.9844 121.1494,354.3281 Q122.4775,352.6719 124.9775,352.6719 Q125.6807,352.6719 126.3213,352.8281 Q126.9775,352.9844 127.54,353.2813 L127.54,356 Q126.915,355.4219 126.3213,355.1563 Q125.7275,354.875 125.1025,354.875 Q123.7588,354.875 123.0713,355.9531 Q122.3838,357.0156 122.3838,359.1094 Q122.3838,361.2031 123.0713,362.2813 Q123.7588,363.3438 125.1025,363.3438 Q125.7275,363.3438 126.3213,363.0781 Q126.915,362.7969 127.54,362.2188 L127.54,364.9375 Z " fill="#000000"/><text fill="#000000" font-family="sans-serif" font-size="14" lengthAdjust="spacing" textLength="55.542" x="145.0713" y="364.1436">Consola</text><line style="stroke:#181818;stroke-width:0.5;" x1="8" x2="305.1846" y1="375.2969" y2="375.2969"/><line style="stroke:#181818;stroke-width:0.5;" x1="8" x2="305.1846" y1="383.2969" y2="383.2969"/><ellipse cx="18" cy="396.9453" fill="#84BE84" rx="3" ry="3" style="stroke:#038048;stroke-width:1;"/><text fill="#000000" font-family="sans-serif" font-size="14" lengthAdjust="spacing" textLength="273.1846" x="27" y="400.292">mostrarMensaje(mensaje: String): void</text></g><!--class JSONSalida--><g id="elem_JSONSalida"><rect codeLine="11" fill="#F1F1F1" height="64.2969" id="JSONSalida" rx="2.5" ry="2.5" style="stroke:#181818;stroke-width:0.5;" width="299.1846" x="341" y="343.2969"/><ellipse cx="447.7329" cy="359.2969" fill="#ADD1B2" rx="11" ry="11" style="stroke:#181818;stroke-width:1;"/><path d="M450.7017,364.9375 Q450.1235,365.2344 449.4829,365.375 Q448.8423,365.5313 448.1392,365.5313 Q445.6392,365.5313 444.311,363.8906 Q442.9985,362.2344 442.9985,359.1094 Q442.9985,355.9844 444.311,354.3281 Q445.6392,352.6719 448.1392,352.6719 Q448.8423,352.6719 449.4829,352.8281 Q450.1392,352.9844 450.7017,353.2813 L450.7017,356 Q450.0767,355.4219 449.4829,355.1563 Q448.8892,354.875 448.2642,354.875 Q446.9204,354.875 446.2329,355.9531 Q445.5454,357.0156 445.5454,359.1094 Q445.5454,361.2031 446.2329,362.2813 Q446.9204,363.3438 448.2642,363.3438 Q448.8892,363.3438 449.4829,363.0781 Q450.0767,362.7969 450.7017,362.2188 L450.7017,364.9375 Z " fill="#000000"/><text fill="#000000" font-family="sans-serif" font-size="14" lengthAdjust="spacing" textLength="77.2188" x="468.2329" y="364.1436">JSONSalida</text><line style="stroke:#181818;stroke-width:0.5;" x1="342" x2="639.1846" y1="375.2969" y2="375.2969"/><line style="stroke:#181818;stroke-width:0.5;" x1="342" x2="639.1846" y1="383.2969" y2="383.2969"/><ellipse cx="352" cy="396.9453" fill="#84BE84" rx="3" ry="3" style="stroke:#038048;stroke-width:1;"/><text fill="#000000" font-family="sans-serif" font-size="14" lengthAdjust="spacing" textLength="273.1846" x="361" y="400.292">mostrarMensaje(mensaje: String): void</text></g><!--class ArchivoTXT--><g id="elem_ArchivoTXT"><rect codeLine="15" fill="#F1F1F1" height="64.2969" id="ArchivoTXT" rx="2.5" ry="2.5" style="stroke:#181818;stroke-width:0.5;" width="299.1846" x="675" y="343.2969"/><ellipse cx="780.6733" cy="359.2969" fill="#ADD1B2" rx="11" ry="11" style="stroke:#181818;stroke-width:1;"/><path d="M783.6421,364.9375 Q783.064,365.2344 782.4233,365.375 Q781.7827,365.5313 781.0796,365.5313 Q778.5796,365.5313 777.2515,363.8906 Q775.939,362.2344 775.939,359.1094 Q775.939,355.9844 777.2515,354.3281 Q778.5796,352.6719 781.0796,352.6719 Q781.7827,352.6719 782.4233,352.8281 Q783.0796,352.9844 783.6421,353.2813 L783.6421,356 Q783.0171,355.4219 782.4233,355.1563 Q781.8296,354.875 781.2046,354.875 Q779.8608,354.875 779.1733,355.9531 Q778.4858,357.0156 778.4858,359.1094 Q778.4858,361.2031 779.1733,362.2813 Q779.8608,363.3438 781.2046,363.3438 Q781.8296,363.3438 782.4233,363.0781 Q783.0171,362.7969 783.6421,362.2188 L783.6421,364.9375 Z " fill="#000000"/><text fill="#000000" font-family="sans-serif" font-size="14" lengthAdjust="spacing" textLength="79.3379" x="801.1733" y="364.1436">ArchivoTXT</text><line style="stroke:#181818;stroke-width:0.5;" x1="676" x2="973.1846" y1="375.2969" y2="375.2969"/><line style="stroke:#181818;stroke-width:0.5;" x1="676" x2="973.1846" y1="383.2969" y2="383.2969"/><ellipse cx="686" cy="396.9453" fill="#84BE84" rx="3" ry="3" style="stroke:#038048;stroke-width:1;"/><text fill="#000000" font-family="sans-serif" font-size="14" lengthAdjust="spacing" textLength="273.1846" x="695" y="400.292">mostrarMensaje(mensaje: String): void</text></g><!--class GestorMensajes--><g id="elem_GestorMensajes"><rect codeLine="19" fill="#F1F1F1" height="96.8906" id="GestorMensajes" rx="2.5" ry="2.5" style="stroke:#181818;stroke-width:0.5;" width="288.1035" x="346.5" y="44.2969"/><ellipse cx="430.4009" cy="60.2969" fill="#ADD1B2" rx="11" ry="11" style="stroke:#181818;stroke-width:1;"/><path d="M433.3696,65.9375 Q432.7915,66.2344 432.1509,66.375 Q431.5103,66.5313 430.8071,66.5313 Q428.3071,66.5313 426.979,64.8906 Q425.6665,63.2344 425.6665,60.1094 Q425.6665,56.9844 426.979,55.3281 Q428.3071,53.6719 430.8071,53.6719 Q431.5103,53.6719 432.1509,53.8281 Q432.8071,53.9844 433.3696,54.2813 L433.3696,57 Q432.7446,56.4219 432.1509,56.1563 Q431.5571,55.875 430.9321,55.875 Q429.5884,55.875 428.9009,56.9531 Q428.2134,58.0156 428.2134,60.1094 Q428.2134,62.2031 428.9009,63.2813 Q429.5884,64.3438 430.9321,64.3438 Q431.5571,64.3438 432.1509,64.0781 Q432.7446,63.7969 433.3696,63.2188 L433.3696,65.9375 Z " fill="#000000"/><text fill="#000000" font-family="sans-serif" font-size="14" lengthAdjust="spacing" textLength="111.8018" x="450.9009" y="65.1436">GestorMensajes</text><line style="stroke:#181818;stroke-width:0.5;" x1="347.5" x2="633.6035" y1="76.2969" y2="76.2969"/><rect fill="none" height="6" style="stroke:#C82930;stroke-width:1;" width="6" x="354.5" y="86.9453"/><text fill="#000000" font-family="sans-serif" font-size="14" lengthAdjust="spacing" textLength="92.9961" x="366.5" y="93.292">salida: Salida</text><line style="stroke:#181818;stroke-width:0.5;" x1="347.5" x2="633.6035" y1="100.5938" y2="100.5938"/><ellipse cx="357.5" cy="114.2422" fill="#84BE84" rx="3" ry="3" style="stroke:#038048;stroke-width:1;"/><text fill="#000000" font-family="sans-serif" font-size="14" lengthAdjust="spacing" textLength="206.8213" x="366.5" y="117.5889">setSalida(salida: Salida): void</text><ellipse cx="357.5" cy="130.5391" fill="#84BE84" rx="3" ry="3" style="stroke:#038048;stroke-width:1;"/><text fill="#000000" font-family="sans-serif" font-size="14" lengthAdjust="spacing" textLength="262.1035" x="366.5" y="133.8857">enviarMensaje(mensaje: String): void</text></g><!--reverse link Salida to Consola--><g id="link_Salida_Consola"><path d="M378.0024,288.3452 C325.3624,306.9852 278.13,324.6269 229.51,343.2669 " fill="none" id="Salida-backto-Consola" style="stroke:#181818;stroke-width:1;stroke-dasharray:7.0,7.0;"/><polygon fill="none" points="394.97,282.3369,375.9996,282.6893,380.0051,294.001,394.97,282.3369" style="stroke:#181818;stroke-width:1;"/></g><!--reverse link Salida to Consola--><g id="link_Salida_Consola"><path codeLine="26" d="M401.3182,288.7943 C352.8182,307.4343 305.41,324.6269 252.66,343.2669 " fill="none" id="Salida-backto-Consola-1" style="stroke:#181818;stroke-width:1;stroke-dasharray:7.0,7.0;"/><polygon fill="none" points="418.12,282.3369,399.1657,283.1937,403.4707,294.3949,418.12,282.3369" style="stroke:#181818;stroke-width:1;"/></g><!--reverse link Salida to JSONSalida--><g id="link_Salida_JSONSalida"><path d="M477.3302,300.2331 C475.3202,318.8731 477.25,324.6269 479.26,343.2669 " fill="none" id="Salida-backto-JSONSalida" style="stroke:#181818;stroke-width:1;stroke-dasharray:7.0,7.0;"/><polygon fill="none" points="479.26,282.3369,471.3648,299.5899,483.2956,300.8764,479.26,282.3369" style="stroke:#181818;stroke-width:1;"/></g><!--reverse link Salida to JSONSalida--><g id="link_Salida_JSONSalida"><path codeLine="27" d="M504.4436,300.2205 C506.5736,318.8605 504.53,324.6269 502.4,343.2669 " fill="none" id="Salida-backto-JSONSalida-1" style="stroke:#181818;stroke-width:1;stroke-dasharray:7.0,7.0;"/><polygon fill="none" points="502.4,282.3369,498.4824,300.9017,510.4048,299.5393,502.4,282.3369" style="stroke:#181818;stroke-width:1;"/></g><!--reverse link Salida to ArchivoTXT--><g id="link_Salida_ArchivoTXT"><path d="M580.3472,288.7804 C628.9672,307.4204 676.37,324.6269 729,343.2669 " fill="none" id="Salida-backto-ArchivoTXT" style="stroke:#181818;stroke-width:1;stroke-dasharray:7.0,7.0;"/><polygon fill="none" points="563.54,282.3369,578.1993,294.3828,582.495,283.178,563.54,282.3369" style="stroke:#181818;stroke-width:1;"/></g><!--reverse link Salida to ArchivoTXT--><g id="link_Salida_ArchivoTXT"><path codeLine="28" d="M603.6619,288.333 C656.4219,306.973 703.65,324.6269 752.15,343.2669 " fill="none" id="Salida-backto-ArchivoTXT-1" style="stroke:#181818;stroke-width:1;stroke-dasharray:7.0,7.0;"/><polygon fill="none" points="586.69,282.3369,601.6632,293.9903,605.6606,282.6757,586.69,282.3369" style="stroke:#181818;stroke-width:1;"/></g><!--link GestorMensajes to Salida--><g id="link_GestorMensajes_Salida"><path codeLine="25" d="M490.5,141.2969 C490.5,166.3069 490.5,190.2569 490.5,212.2769 " fill="none" id="GestorMensajes-to-Salida" style="stroke:#181818;stroke-width:1;"/><polygon fill="#181818" points="490.5,218.2769,494.5,209.2769,490.5,213.2769,486.5,209.2769,490.5,218.2769" style="stroke:#181818;stroke-width:1;"/><text fill="#000000" font-family="sans-serif" font-size="13" lengthAdjust="spacing" textLength="22.9785" x="491.5" y="184.3638">usa</text></g><!--SRC=[hP5BQiCm48RtEiKiKugzoig4GkcYK4XQi1VPXS6UkXDaAMYcXf3aL3b2BXRXHuExAZJQQ1x_V8D-AQib41Qb1g4YM98Jt990wHrye8RBsG5jvvjTZBtBDQ1IlJU6dLBun98WHyiLmi50F8-DbwW90sVMz7S6SP9T_P11wxao9sDAYoBmufruYy3Dpb8Kg_oFzvQ_hmR0lP3FeVpYrXVhucx8LnBruSVh7f98Xym6T0yMqZwTJRiZiXEHQ_alot-jJPAdyHaPV0kQ8LaSqtJyc4djPkwaV3Fe2W00]--></g></svg>