<svg xmlns="http://www.w3.org/2000/svg" xmlns:xlink="http://www.w3.org/1999/xlink" contentStyleType="text/css" height="463px" preserveAspectRatio="none" style="width:437px;height:463px;background:#FFFFFF;" version="1.1" viewBox="0 0 437 463" width="437px" zoomAndPan="magnify"><title>Diagrama Conversion de ficheros - archivosWin7-10</title><defs/><g><text fill="#000000" font-family="sans-serif" font-size="14" font-weight="bold" lengthAdjust="spacing" textLength="409.3154" x="10" y="22.9951">Diagrama Conversion de ficheros - archivosWin7-10</text><!--class Windows7File--><g id="elem_Windows7File"><rect codeLine="3" fill="#F1F1F1" height="96.8906" id="Windows7File" rx="2.5" ry="2.5" style="stroke:#181818;stroke-width:0.5;" width="227.0381" x="108.3442" y="44.2969"/><ellipse cx="169.5361" cy="60.2969" fill="#ADD1B2" rx="11" ry="11" style="stroke:#181818;stroke-width:1;"/><path d="M172.5049,65.9375 Q171.9268,66.2344 171.2861,66.375 Q170.6455,66.5313 169.9424,66.5313 Q167.4424,66.5313 166.1143,64.8906 Q164.8018,63.2344 164.8018,60.1094 Q164.8018,56.9844 166.1143,55.3281 Q167.4424,53.6719 169.9424,53.6719 Q170.6455,53.6719 171.2861,53.8281 Q171.9424,53.9844 172.5049,54.2813 L172.5049,57 Q171.8799,56.4219 171.2861,56.1563 Q170.6924,55.875 170.0674,55.875 Q168.7236,55.875 168.0361,56.9531 Q167.3486,58.0156 167.3486,60.1094 Q167.3486,62.2031 168.0361,63.2813 Q168.7236,64.3438 170.0674,64.3438 Q170.6924,64.3438 171.2861,64.0781 Q171.8799,63.7969 172.5049,63.2188 L172.5049,65.9375 Z " fill="#000000"/><text fill="#000000" font-family="sans-serif" font-size="14" lengthAdjust="spacing" textLength="96.1543" x="190.0361" y="65.1436">Windows7File</text><line style="stroke:#181818;stroke-width:0.5;" x1="109.3442" x2="334.3823" y1="76.2969" y2="76.2969"/><rect fill="none" height="6" style="stroke:#C82930;stroke-width:1;" width="6" x="116.3442" y="86.9453"/><text fill="#000000" font-family="sans-serif" font-size="14" lengthAdjust="spacing" textLength="110.3799" x="128.3442" y="93.292">filename: string</text><line style="stroke:#181818;stroke-width:0.5;" x1="109.3442" x2="334.3823" y1="100.5938" y2="100.5938"/><ellipse cx="119.3442" cy="114.2422" fill="#84BE84" rx="3" ry="3" style="stroke:#038048;stroke-width:1;"/><text fill="#000000" font-family="sans-serif" font-size="14" lengthAdjust="spacing" textLength="201.0381" x="128.3442" y="117.5889">__construct(filename: string)</text><ellipse cx="119.3442" cy="130.5391" fill="#84BE84" rx="3" ry="3" style="stroke:#038048;stroke-width:1;"/><text fill="#000000" font-family="sans-serif" font-size="14" lengthAdjust="spacing" textLength="107.7139" x="128.3442" y="133.8857">getFile(): string</text></g><!--class Windows10FileReader--><g id="elem_Windows10FileReader"><rect codeLine="9" fill="#F1F1F1" height="64.2969" id="Windows10FileReader" rx="2.5" ry="2.5" style="stroke:#181818;stroke-width:0.5;" width="258.3535" x="92.8442" y="392.2969"/><ellipse cx="140.1523" cy="408.2969" fill="#ADD1B2" rx="11" ry="11" style="stroke:#181818;stroke-width:1;"/><path d="M143.1211,413.9375 Q142.543,414.2344 141.9023,414.375 Q141.2617,414.5313 140.5586,414.5313 Q138.0586,414.5313 136.7305,412.8906 Q135.418,411.2344 135.418,408.1094 Q135.418,404.9844 136.7305,403.3281 Q138.0586,401.6719 140.5586,401.6719 Q141.2617,401.6719 141.9023,401.8281 Q142.5586,401.9844 143.1211,402.2813 L143.1211,405 Q142.4961,404.4219 141.9023,404.1563 Q141.3086,403.875 140.6836,403.875 Q139.3398,403.875 138.6523,404.9531 Q137.9648,406.0156 137.9648,408.1094 Q137.9648,410.2031 138.6523,411.2813 Q139.3398,412.3438 140.6836,412.3438 Q141.3086,412.3438 141.9023,412.0781 Q142.4961,411.7969 143.1211,411.2188 L143.1211,413.9375 Z " fill="#000000"/><text fill="#000000" font-family="sans-serif" font-size="14" lengthAdjust="spacing" textLength="155.2373" x="160.6523" y="413.1436">Windows10FileReader</text><line style="stroke:#181818;stroke-width:0.5;" x1="93.8442" x2="350.1978" y1="424.2969" y2="424.2969"/><line style="stroke:#181818;stroke-width:0.5;" x1="93.8442" x2="350.1978" y1="432.2969" y2="432.2969"/><ellipse cx="103.8442" cy="445.9453" fill="#84BE84" rx="3" ry="3" style="stroke:#038048;stroke-width:1;"/><text fill="#000000" font-family="sans-serif" font-size="14" lengthAdjust="spacing" textLength="232.3535" x="112.8442" y="449.292">readFile(fileContent: string): void</text></g><!--class FileAdapter--><g id="elem_FileAdapter"><rect codeLine="13" fill="#F1F1F1" height="96.8906" id="FileAdapter" rx="2.5" ry="2.5" style="stroke:#181818;stroke-width:0.5;" width="279.627" x="81.8442" y="218.2969"/><ellipse cx="177.291" cy="234.2969" fill="#ADD1B2" rx="11" ry="11" style="stroke:#181818;stroke-width:1;"/><path d="M180.2598,239.9375 Q179.6816,240.2344 179.041,240.375 Q178.4004,240.5313 177.6973,240.5313 Q175.1973,240.5313 173.8691,238.8906 Q172.5566,237.2344 172.5566,234.1094 Q172.5566,230.9844 173.8691,229.3281 Q175.1973,227.6719 177.6973,227.6719 Q178.4004,227.6719 179.041,227.8281 Q179.6973,227.9844 180.2598,228.2813 L180.2598,231 Q179.6348,230.4219 179.041,230.1563 Q178.4473,229.875 177.8223,229.875 Q176.4785,229.875 175.791,230.9531 Q175.1035,232.0156 175.1035,234.1094 Q175.1035,236.2031 175.791,237.2813 Q176.4785,238.3438 177.8223,238.3438 Q178.4473,238.3438 179.041,238.0781 Q179.6348,237.7969 180.2598,237.2188 L180.2598,239.9375 Z " fill="#000000"/><text fill="#000000" font-family="sans-serif" font-size="14" lengthAdjust="spacing" textLength="80.2334" x="197.791" y="239.1436">FileAdapter</text><line style="stroke:#181818;stroke-width:0.5;" x1="82.8442" x2="360.4712" y1="250.2969" y2="250.2969"/><rect fill="none" height="6" style="stroke:#C82930;stroke-width:1;" width="6" x="89.8442" y="260.9453"/><text fill="#000000" font-family="sans-serif" font-size="14" lengthAdjust="spacing" textLength="162.9688" x="101.8442" y="267.292">adaptee: Windows7File</text><line style="stroke:#181818;stroke-width:0.5;" x1="82.8442" x2="360.4712" y1="274.5938" y2="274.5938"/><ellipse cx="92.8442" cy="288.2422" fill="#84BE84" rx="3" ry="3" style="stroke:#038048;stroke-width:1;"/><text fill="#000000" font-family="sans-serif" font-size="14" lengthAdjust="spacing" textLength="253.627" x="101.8442" y="291.5889">__construct(adaptee: Windows7File)</text><ellipse cx="92.8442" cy="304.5391" fill="#84BE84" rx="3" ry="3" style="stroke:#038048;stroke-width:1;"/><text fill="#000000" font-family="sans-serif" font-size="14" lengthAdjust="spacing" textLength="138.0039" x="101.8442" y="307.8857">convertFile(): string</text></g><!--link Windows7File to FileAdapter--><g id="link_Windows7File_FileAdapter"><path codeLine="19" d="M221.8442,141.7069 C221.8442,165.5669 221.8442,188.3169 221.8442,212.1469 " fill="none" id="Windows7File-to-FileAdapter" style="stroke:#181818;stroke-width:1;"/><polygon fill="#181818" points="221.8442,218.1469,225.8442,209.1469,221.8442,213.1469,217.8442,209.1469,221.8442,218.1469" style="stroke:#181818;stroke-width:1;"/><text fill="#000000" font-family="sans-serif" font-size="13" lengthAdjust="spacing" textLength="53.5298" x="222.8442" y="184.3638">adaptee</text></g><!--link FileAdapter to Windows10FileReader--><g id="link_FileAdapter_Windows10FileReader"><path codeLine="20" d="M221.8442,315.2969 C221.8442,340.3069 221.8442,364.2569 221.8442,386.2769 " fill="none" id="FileAdapter-to-Windows10FileReader" style="stroke:#181818;stroke-width:1;"/><polygon fill="#181818" points="221.8442,392.2769,225.8442,383.2769,221.8442,387.2769,217.8442,383.2769,221.8442,392.2769" style="stroke:#181818;stroke-width:1;"/><text fill="#000000" font-family="sans-serif" font-size="13" lengthAdjust="spacing" textLength="82.3164" x="222.8442" y="358.3638">convertFile()</text></g><!--SRC=[RL2z2i8m4Dxp53TQIa2dGWT151_0nL52SjQ3caWIwo2-kvVGrbPwstTyz_rSfDWY74WrNjqLx9tjq0To5Wp2bVGDlGiWGNbzeyw5CzbARjP2w5Q500oDUuNgIApo5i0Z-Qn5g-vOGuYUR9FN9LmksbdUF7LS_LEAdjDWJ5AhOhpz_5bjrebmGcNGzuubU8RvBkboXuWsZj8rT8xCJoWHTqOzuYZ0zJBcEDD22xaNUKDudP-tK63s9IctimZrO2wcsyHQQbpFNRu0]--></g></svg>