<svg xmlns="http://www.w3.org/2000/svg" xmlns:xlink="http://www.w3.org/1999/xlink" contentStyleType="text/css" height="359px" preserveAspectRatio="none" style="width:369px;height:359px;background:#FFFFFF;" version="1.1" viewBox="0 0 369 359" width="369px" zoomAndPan="magnify"><defs/><g><!--class Personaje--><g id="elem_Personaje"><rect codeLine="1" fill="#F1F1F1" height="80.5938" id="Personaje" rx="2.5" ry="2.5" style="stroke:#181818;stroke-width:0.5;" width="147.0439" x="111" y="131"/><ellipse cx="146.8881" cy="147" fill="#B4A7E5" rx="11" ry="11" style="stroke:#181818;stroke-width:1;"/><path d="M142.81,142.7656 L142.81,140.6094 L150.2006,140.6094 L150.2006,142.7656 L147.7318,142.7656 L147.7318,150.8438 L150.2006,150.8438 L150.2006,153 L142.81,153 L142.81,150.8438 L145.2787,150.8438 L145.2787,142.7656 L142.81,142.7656 Z " fill="#000000"/><text fill="#000000" font-family="sans-serif" font-size="14" font-style="italic" lengthAdjust="spacing" textLength="68.626" x="165.5299" y="151.8467">Personaje</text><line style="stroke:#181818;stroke-width:0.5;" x1="112" x2="257.0439" y1="163" y2="163"/><line style="stroke:#181818;stroke-width:0.5;" x1="112" x2="257.0439" y1="171" y2="171"/><ellipse cx="122" cy="184.6484" fill="#84BE84" rx="3" ry="3" style="stroke:#038048;stroke-width:1;"/><text fill="#000000" font-family="sans-serif" font-size="14" lengthAdjust="spacing" textLength="104.959" x="131" y="187.9951">atacar(): string</text><ellipse cx="122" cy="200.9453" fill="#84BE84" rx="3" ry="3" style="stroke:#038048;stroke-width:1;"/><text fill="#000000" font-family="sans-serif" font-size="14" lengthAdjust="spacing" textLength="121.0439" x="131" y="204.292">moverse(): string</text></g><!--class Esqueleto--><g id="elem_Esqueleto"><rect codeLine="6" fill="#F1F1F1" height="80.5938" id="Esqueleto" rx="2.5" ry="2.5" style="stroke:#181818;stroke-width:0.5;" width="147.0439" x="20" y="272"/><ellipse cx="55.6881" cy="288" fill="#ADD1B2" rx="11" ry="11" style="stroke:#181818;stroke-width:1;"/><path d="M58.6569,293.6406 Q58.0788,293.9375 57.4381,294.0781 Q56.7975,294.2344 56.0944,294.2344 Q53.5944,294.2344 52.2663,292.5938 Q50.9538,290.9375 50.9538,287.8125 Q50.9538,284.6875 52.2663,283.0313 Q53.5944,281.375 56.0944,281.375 Q56.7975,281.375 57.4381,281.5313 Q58.0944,281.6875 58.6569,281.9844 L58.6569,284.7031 Q58.0319,284.125 57.4381,283.8594 Q56.8444,283.5781 56.2194,283.5781 Q54.8756,283.5781 54.1881,284.6563 Q53.5006,285.7188 53.5006,287.8125 Q53.5006,289.9063 54.1881,290.9844 Q54.8756,292.0469 56.2194,292.0469 Q56.8444,292.0469 57.4381,291.7813 Q58.0319,291.5 58.6569,290.9219 L58.6569,293.6406 Z " fill="#000000"/><text fill="#000000" font-family="sans-serif" font-size="14" lengthAdjust="spacing" textLength="69.0703" x="74.2855" y="292.8467">Esqueleto</text><line style="stroke:#181818;stroke-width:0.5;" x1="21" x2="166.0439" y1="304" y2="304"/><line style="stroke:#181818;stroke-width:0.5;" x1="21" x2="166.0439" y1="312" y2="312"/><ellipse cx="31" cy="325.6484" fill="#84BE84" rx="3" ry="3" style="stroke:#038048;stroke-width:1;"/><text fill="#000000" font-family="sans-serif" font-size="14" lengthAdjust="spacing" textLength="104.959" x="40" y="328.9951">atacar(): string</text><ellipse cx="31" cy="341.9453" fill="#84BE84" rx="3" ry="3" style="stroke:#038048;stroke-width:1;"/><text fill="#000000" font-family="sans-serif" font-size="14" lengthAdjust="spacing" textLength="121.0439" x="40" y="345.292">moverse(): string</text></g><!--class Zombi--><g id="elem_Zombi"><rect codeLine="11" fill="#F1F1F1" height="80.5938" id="Zombi" rx="2.5" ry="2.5" style="stroke:#181818;stroke-width:0.5;" width="147.0439" x="202" y="272"/><ellipse cx="248.9868" cy="288" fill="#ADD1B2" rx="11" ry="11" style="stroke:#181818;stroke-width:1;"/><path d="M251.9556,293.6406 Q251.3774,293.9375 250.7368,294.0781 Q250.0962,294.2344 249.3931,294.2344 Q246.8931,294.2344 245.5649,292.5938 Q244.2524,290.9375 244.2524,287.8125 Q244.2524,284.6875 245.5649,283.0313 Q246.8931,281.375 249.3931,281.375 Q250.0962,281.375 250.7368,281.5313 Q251.3931,281.6875 251.9556,281.9844 L251.9556,284.7031 Q251.3306,284.125 250.7368,283.8594 Q250.1431,283.5781 249.5181,283.5781 Q248.1743,283.5781 247.4868,284.6563 Q246.7993,285.7188 246.7993,287.8125 Q246.7993,289.9063 247.4868,290.9844 Q248.1743,292.0469 249.5181,292.0469 Q250.1431,292.0469 250.7368,291.7813 Q251.3306,291.5 251.9556,290.9219 L251.9556,293.6406 Z " fill="#000000"/><text fill="#000000" font-family="sans-serif" font-size="14" lengthAdjust="spacing" textLength="44.5703" x="269.4868" y="292.8467">Zombi</text><line style="stroke:#181818;stroke-width:0.5;" x1="203" x2="348.0439" y1="304" y2="304"/><line style="stroke:#181818;stroke-width:0.5;" x1="203" x2="348.0439" y1="312" y2="312"/><ellipse cx="213" cy="325.6484" fill="#84BE84" rx="3" ry="3" style="stroke:#038048;stroke-width:1;"/><text fill="#000000" font-family="sans-serif" font-size="14" lengthAdjust="spacing" textLength="104.959" x="222" y="328.9951">atacar(): string</text><ellipse cx="213" cy="341.9453" fill="#84BE84" rx="3" ry="3" style="stroke:#038048;stroke-width:1;"/><text fill="#000000" font-family="sans-serif" font-size="14" lengthAdjust="spacing" textLength="121.0439" x="222" y="345.292">moverse(): string</text></g><!--class PersonajeFactory--><g id="elem_PersonajeFactory"><rect codeLine="16" fill="#F1F1F1" height="64.2969" id="PersonajeFactory" rx="2.5" ry="2.5" style="stroke:#181818;stroke-width:0.5;" width="355.0752" x="7" y="7"/><ellipse cx="119.7622" cy="23" fill="#ADD1B2" rx="11" ry="11" style="stroke:#181818;stroke-width:1;"/><path d="M122.731,28.6406 Q122.1528,28.9375 121.5122,29.0781 Q120.8716,29.2344 120.1685,29.2344 Q117.6685,29.2344 116.3403,27.5938 Q115.0278,25.9375 115.0278,22.8125 Q115.0278,19.6875 116.3403,18.0313 Q117.6685,16.375 120.1685,16.375 Q120.8716,16.375 121.5122,16.5313 Q122.1685,16.6875 122.731,16.9844 L122.731,19.7031 Q122.106,19.125 121.5122,18.8594 Q120.9185,18.5781 120.2935,18.5781 Q118.9497,18.5781 118.2622,19.6563 Q117.5747,20.7188 117.5747,22.8125 Q117.5747,24.9063 118.2622,25.9844 Q118.9497,27.0469 120.2935,27.0469 Q120.9185,27.0469 121.5122,26.7813 Q122.106,26.5 122.731,25.9219 L122.731,28.6406 Z " fill="#000000"/><text fill="#000000" font-family="sans-serif" font-size="14" lengthAdjust="spacing" textLength="121.0508" x="140.2622" y="27.8467">PersonajeFactory</text><line style="stroke:#181818;stroke-width:0.5;" x1="8" x2="361.0752" y1="39" y2="39"/><line style="stroke:#181818;stroke-width:0.5;" x1="8" x2="361.0752" y1="47" y2="47"/><ellipse cx="18" cy="60.6484" fill="#84BE84" rx="3" ry="3" style="stroke:#038048;stroke-width:1;"/><text fill="#000000" font-family="sans-serif" font-size="14" lengthAdjust="spacing" textLength="329.0752" x="27" y="63.9951">crearPersonaje(nivel: string): PersonajeFactory</text></g><!--reverse link Personaje to Esqueleto--><g id="link_Personaje_Esqueleto"><path codeLine="20" d="M148.5628,227.391 C136.3828,246.001 131.77,253.05 119.58,271.66 " fill="none" id="Personaje-backto-Esqueleto" style="stroke:#181818;stroke-width:1;stroke-dasharray:7.0,7.0;"/><polygon fill="none" points="158.42,212.33,143.5424,224.1053,153.5831,230.6768,158.42,212.33" style="stroke:#181818;stroke-width:1;"/></g><!--reverse link Personaje to Zombi--><g id="link_Personaje_Zombi"><path codeLine="21" d="M220.4372,227.391 C232.6172,246.001 237.23,253.05 249.42,271.66 " fill="none" id="Personaje-backto-Zombi" style="stroke:#181818;stroke-width:1;stroke-dasharray:7.0,7.0;"/><polygon fill="none" points="210.58,212.33,215.4169,230.6768,225.4576,224.1053,210.58,212.33" style="stroke:#181818;stroke-width:1;"/></g><!--link PersonajeFactory to Personaje--><g id="link_PersonajeFactory_Personaje"><path codeLine="22" d="M184.5,71.26 C184.5,89.05 184.5,105.53 184.5,124.59 " fill="none" id="PersonajeFactory-to-Personaje" style="stroke:#181818;stroke-width:1;stroke-dasharray:7.0,7.0;"/><polygon fill="#181818" points="184.5,130.59,188.5,121.59,184.5,125.59,180.5,121.59,184.5,130.59" style="stroke:#181818;stroke-width:1;"/></g><!--SRC=[oymhIIrAIqnELGX8BIhEpqlCIbMevj9MI2n9J4uiqj2qKYWkAShCImSAvUQN0PMa8edLSd4bvoGM5oku5XUMfkQabkIJeJSgFpSfamnzSFUw9IQNv1TLWer8BafDB8BBQEHbbgNcmBG2pK3N0p8DuM-R6ZqzX5VG9C3EvCAmL4_F3c4g0000]--></g></svg>